<svg xmlns="http://www.w3.org/2000/svg" viewBox="0 0 100 100" width="100" height="100">
  <defs>
    <linearGradient id="goldBright" x1="0%" y1="0%" x2="100%" y2="100%">
      <stop offset="0%" stop-color="#fff9c4"/>
      <stop offset="30%" stop-color="#fbc02d"/>
      <stop offset="70%" stop-color="#f57f17"/>
      <stop offset="100%" stop-color="#e65100"/>
    </linearGradient>
    <radialGradient id="sunGlow" cx="50%" cy="50%" r="50%">
      <stop offset="0%" stop-color="#fffde7" stop-opacity="1"/>
      <stop offset="50%" stop-color="#fbc02d" stop-opacity="0.5"/>
      <stop offset="100%" stop-color="#f57f17" stop-opacity="0"/>
    </radialGradient>
  </defs>
  <!-- Outer Compass Ring -->
  <circle cx="50" cy="50" r="42" fill="none" stroke="url(#goldBright)" stroke-width="3.5"/>
  <circle cx="50" cy="50" r="38" fill="none" stroke="#fbc02d" stroke-width="1" stroke-dasharray="2,6"/>
  <!-- Star Points (North, South, East, West) -->
  <path d="M50 8 L56 38 L86 38 L62 50 L72 80 L50 62 L28 80 L38 50 L14 38 L44 38 Z" fill="url(#goldBright)" stroke="#e65100" stroke-width="2"/>
  <!-- Diagonals -->
  <path d="M50 50 L50 20 L58 42 Z M50 50 L50 80 L42 58 Z M50 50 L80 50 L58 42 Z M50 50 L20 50 L42 58 Z" fill="#fbc02d" opacity="0.8"/>
  <path d="M50 50 L50 20 L42 42 Z M50 50 L50 80 L58 58 Z M50 50 L80 50 L58 58 Z M50 50 L20 50 L42 42 Z" fill="#e65100" opacity="0.8"/>
  <!-- Central core -->
  <circle cx="50" cy="50" r="10" fill="url(#sunGlow)"/>
  <circle cx="50" cy="50" r="6" fill="#fffde7" stroke="#e65100" stroke-width="1.5"/>
</svg>
